<svg width="22" height="22" viewBox="0 0 22 22" fill="none" xmlns="http://www.w3.org/2000/svg">
<path d="M17 5H21M13 3H16C16.265 3 16.52 3.105 16.707 3.293C16.895 3.48 17 3.735 17 4V6C17 6.265 16.895 6.52 16.707 6.707C16.52 6.895 16.265 7 16 7H13M4 9L2 17M2 17C1.4 17 1 17.4 1 18C1 19.7 2.3 21 4 21H9C9.6 21 10 20.6 10 20V18C10 17.4 9.6 17 9 17H2ZM11 9V12C11 12.6 10.6 13 10 13H7M6 17L8 9M13 8C13 8.6 12.6 9 12 9H3C2.47 9 1.961 8.789 1.586 8.414C1.211 8.039 1 7.53 1 7V3C1 2.47 1.211 1.961 1.586 1.586C1.961 1.211 2.47 1 3 1H12C12.6 1 13 1.4 13 2V8Z" stroke="#1F24E9" stroke-width="2" stroke-linecap="round" stroke-linejoin="round"/>
</svg>
