<svg width="20" height="17" viewBox="0 0 20 17" fill="none" xmlns="http://www.w3.org/2000/svg">
<path d="M19 4.00049L17 6.00049M17 6.00049L15.5 2.30049C15.359 1.92149 15.106 1.59449 14.775 1.36249C14.444 1.13049 14.05 1.00449 13.646 1.00049H6.39999C5.99299 0.991491 5.592 1.10648 5.252 1.33148C4.912 1.55548 4.64799 1.87949 4.49699 2.25749L3 6.00049M17 6.00049H3M17 6.00049C18.105 6.00049 19 6.89549 19 8.00049V12.0005C19 13.1055 18.105 14.0005 17 14.0005M3 6.00049L1 4.00049M3 6.00049C1.895 6.00049 1 6.89549 1 8.00049V12.0005C1 13.1055 1.895 14.0005 3 14.0005M17 14.0005H3M17 14.0005V16.0005M3 14.0005V16.0005M5 10.0005H5.00999M15 10.0005H15.01" stroke="#6DA5FF" stroke-width="2" stroke-linecap="round" stroke-linejoin="round"/>
</svg>
